<svg width="30" height="22" viewBox="0 0 30 22" fill="none" xmlns="http://www.w3.org/2000/svg">
<path fill-rule="evenodd" clip-rule="evenodd" d="M19.1285 10.7689C19.1252 9.8484 18.6823 8.86771 17.6042 7.46358C17.6803 6.72044 17.9468 6.58017 18.6741 6.64205C19.7982 8.106 20.4726 9.38542 20.4774 10.7641C20.4822 12.1394 19.8201 13.4574 18.6816 14.9982C17.9403 15.0891 17.6795 14.9411 17.5967 14.1966C18.6928 12.7131 19.1317 11.6928 19.1285 10.7689Z" fill="#444444"/>
<path fill-rule="evenodd" clip-rule="evenodd" d="M23.3382 10.7222C23.3321 8.87875 22.4929 6.99776 20.6585 4.46112C20.7388 3.64064 21.0285 3.54126 21.7515 3.67065C23.6334 6.27296 24.6796 8.44162 24.6872 10.7178C24.6947 12.9907 23.6659 15.2285 21.7586 17.9694C21.0034 18.1138 20.7595 17.9472 20.6514 17.1989C22.515 14.5208 23.3443 12.569 23.3382 10.7222Z" fill="#444444"/>
<path fill-rule="evenodd" clip-rule="evenodd" d="M27.9663 10.6732C27.9565 7.87528 26.6052 5.04946 23.738 1.30437C23.7829 0.514811 24.0254 0.328019 24.809 0.484339C27.7223 4.28956 29.3038 7.41359 29.3152 10.6684C29.3266 13.9199 27.7705 17.1462 24.8165 21.1558C23.9959 21.3063 23.7438 21.1549 23.7305 20.3557C26.642 16.4037 27.9761 13.4744 27.9663 10.6732Z" fill="#444444"/>
<path fill-rule="evenodd" clip-rule="evenodd" d="M0.619141 7.02406C0.619141 6.27905 1.22308 5.67511 1.96809 5.67511H6.80356C7.54856 5.67511 8.1525 6.27905 8.1525 7.02406V14.9846C8.1525 15.7296 7.54856 16.3335 6.80356 16.3335H1.96809C1.22308 16.3335 0.619141 15.7296 0.619141 14.9846V7.02406ZM1.96809 7.02406V14.9846H6.80356V7.02406H1.96809Z" fill="#444444"/>
<path fill-rule="evenodd" clip-rule="evenodd" d="M13.8168 1.33299C14.0431 1.44802 14.1857 1.68038 14.1857 1.93424V19.8199C14.1857 20.0738 14.0431 20.3062 13.8168 20.4212C13.5905 20.5362 13.3188 20.5144 13.1137 20.3648L6.77051 15.7374L7.56551 14.6476L12.8367 18.493V3.26115L7.56551 7.10654L6.77051 6.01676L13.1137 1.38935C13.3188 1.23974 13.5905 1.21795 13.8168 1.33299Z" fill="#444444"/>
</svg>
